<svg xmlns="http://www.w3.org/2000/svg" viewBox="0 0 1440 320">

    <path fill="#bdbdbd3b" fill-opacity="1" d="M0,224L10.4,192C20.9,160,42,96,63,64C83.5,32,104,32,125,48C146.1,64,167,96,188,133.3C208.7,171,230,213,250,234.7C271.3,256,292,256,313,261.3C333.9,267,355,277,376,272C396.5,267,417,245,438,208C459.1,171,480,117,501,106.7C521.7,96,543,128,563,154.7C584.3,181,605,203,626,186.7C647,171,668,117,689,106.7C709.6,96,730,128,751,149.3C772.2,171,793,181,814,160C834.8,139,856,85,877,90.7C897.4,96,918,160,939,202.7C960,245,981,267,1002,229.3C1022.6,192,1043,96,1064,96C1085.2,96,1106,192,1127,218.7C1147.8,245,1169,203,1190,165.3C1210.4,128,1231,96,1252,112C1273,128,1294,192,1315,197.3C1335.7,203,1357,149,1377,112C1398.3,75,1419,53,1430,42.7L1440,32L1440,320L1429.6,320C1419.1,320,1398,320,1377,320C1356.5,320,1336,320,1315,320C1293.9,320,1273,320,1252,320C1231.3,320,1210,320,1190,320C1168.7,320,1148,320,1127,320C1106.1,320,1085,320,1064,320C1043.5,320,1023,320,1002,320C980.9,320,960,320,939,320C918.3,320,897,320,877,320C855.7,320,835,320,814,320C793,320,772,320,751,320C730.4,320,710,320,689,320C667.8,320,647,320,626,320C605.2,320,584,320,563,320C542.6,320,522,320,501,320C480,320,459,320,438,320C417.4,320,397,320,376,320C354.8,320,334,320,313,320C292.2,320,271,320,250,320C229.6,320,209,320,188,320C167,320,146,320,125,320C104.3,320,83,320,63,320C41.7,320,21,320,10,320L0,320Z">
    </path>

</svg>